<?xml version="1.0" standalone="no"?>
<!DOCTYPE svg PUBLIC "-//W3C//DTD SVG 20010904//EN"
 "http://www.w3.org/TR/2001/REC-SVG-20010904/DTD/svg10.dtd">
<svg version="1.0" xmlns="http://www.w3.org/2000/svg"
 width="1920.000000pt" height="1920.000000pt" viewBox="0 0 1920.000000 1920.000000"
 preserveAspectRatio="xMidYMid meet">

<g transform="translate(0.000000,1920.000000) scale(0.100000,-0.100000)"
fill="#000000" stroke="none">
<path d="M8835 14620 c-308 -28 -628 -168 -810 -354 -119 -121 -124 -134 -219
-618 -46 -233 -92 -470 -103 -527 l-19 -103 -160 -33 c-470 -97 -837 -213
-1139 -360 -199 -97 -320 -178 -431 -289 -248 -249 -242 -495 18 -741 180
-172 465 -320 876 -455 l173 -57 -93 -45 c-207 -100 -392 -233 -587 -423 -242
-235 -416 -470 -583 -785 -58 -109 -163 -339 -157 -344 2 -2 78 -26 169 -55
583 -187 1152 -465 1474 -721 42 -33 79 -60 83 -60 5 0 21 39 36 86 111 342
338 704 608 971 184 182 340 293 564 403 227 112 441 176 720 216 164 24 523
24 694 0 704 -96 1253 -442 1644 -1036 79 -120 223 -407 263 -525 15 -44 29
-82 31 -84 1 -2 30 15 63 38 312 219 893 497 1455 697 105 37 192 68 194 70 6
5 -99 235 -157 344 -167 315 -341 550 -583 785 -195 190 -380 323 -587 423
l-93 45 173 57 c411 135 696 283 876 455 203 192 249 377 144 580 -47 92 -184
230 -312 314 -303 200 -819 384 -1393 497 -104 20 -148 33 -152 44 -2 8 -18
94 -34 191 -45 259 -108 576 -143 724 -27 111 -36 135 -63 162 -60 60 -128 56
-398 -28 -307 -94 -419 -115 -586 -106 -171 9 -313 60 -447 161 -34 25 -115
103 -180 172 -132 142 -218 205 -342 253 -141 54 -322 77 -487 61z m-1041
-1685 c233 -72 496 -127 796 -164 318 -40 449 -46 1010 -46 561 0 692 6 1010
46 301 38 563 92 798 165 63 20 115 34 116 32 11 -12 166 -852 160 -858 -18
-18 -225 -94 -370 -135 -304 -88 -674 -147 -1092 -175 -85 -5 -364 -10 -622
-10 -258 0 -537 5 -622 10 -418 28 -788 87 -1092 175 -145 41 -352 117 -370
135 -8 8 153 860 163 860 2 0 54 -16 115 -35z m236 -2070 c339 -82 811 -136
1053 -121 53 3 97 2 97 -2 0 -18 -133 -139 -192 -175 -101 -61 -183 -82 -313
-81 -91 1 -125 6 -195 29 -149 48 -275 121 -426 247 -88 74 -143 128 -131 128
3 0 51 -11 107 -25z m3229 -1 c-80 -88 -275 -232 -396 -292 -117 -59 -217 -85
-338 -86 -130 -1 -212 20 -313 81 -59 36 -192 157 -192 175 0 4 44 5 98 2 240
-15 726 41 1042 120 125 31 128 31 99 0z"/>
<path d="M9370 9959 c-373 -43 -753 -207 -1045 -451 -221 -184 -390 -400 -515
-660 -340 -704 -240 -1530 258 -2136 39 -48 400 -415 802 -817 l730 -730 640
640 640 640 -315 315 -314 314 -79 -42 c-92 -49 -187 -86 -292 -114 -110 -29
-364 -36 -485 -14 -486 91 -847 434 -966 918 -19 76 -23 121 -23 253 -1 99 4
187 13 230 97 490 461 856 956 961 54 11 127 17 225 17 206 0 345 -32 530
-121 283 -137 512 -401 609 -700 46 -141 56 -213 55 -387 0 -132 -4 -177 -23
-255 -50 -202 -147 -392 -265 -518 l-30 -33 306 -306 306 -306 58 71 c328 402
490 946 433 1460 -33 304 -146 625 -305 870 -330 506 -862 835 -1456 901 -112
13 -338 12 -448 0z"/>
<path d="M9264 8826 c-292 -133 -484 -431 -484 -750 1 -223 76 -410 229 -570
163 -170 353 -250 591 -250 238 0 428 80 591 250 153 160 228 347 229 570 0
321 -194 621 -487 750 -29 13 -56 24 -58 24 -3 0 5 -19 17 -42 19 -36 23 -58
23 -138 0 -84 -3 -101 -27 -146 -30 -57 -87 -112 -150 -146 -36 -19 -58 -23
-138 -23 -80 0 -102 4 -138 23 -63 34 -120 89 -150 146 -24 45 -27 62 -27 146
0 80 4 102 23 138 12 23 19 42 15 41 -5 0 -31 -11 -59 -23z"/>
<path d="M9225 4919 c-340 -25 -601 -86 -634 -148 -16 -29 20 -66 87 -91 369
-139 1475 -139 1844 0 67 25 103 62 87 91 -33 63 -294 123 -651 148 -167 12
-569 12 -733 0z"/>
</g>
</svg>
